<svg version="1.1" xmlns="http://www.w3.org/2000/svg" xmlns:xlink="http://www.w3.org/1999/xlink" width="360.32546" height="35.96023" viewBox="0,0,360.32546,35.96023"><g transform="translate(-64.20057,-183.4034)"><g data-paper-data="{&quot;isPaintingLayer&quot;:true}" fill-rule="nonzero" stroke="none" stroke-width="1" stroke-linecap="butt" stroke-linejoin="miter" stroke-miterlimit="10" stroke-dasharray="" stroke-dashoffset="0" style="mix-blend-mode: normal"><path d="M145.33727,184.51988c1.50662,3.01324 1.17771,5.68286 1,9c-0.66,0.66 -1.32,1.32 -2,2c-0.99,0 -1.98,0 -3,0c0,7.26 0,14.52 0,22c-2.37966,1.18983 -3.91485,1.1335 -6.5625,1.125c-1.20849,0.00386 -1.20849,0.00386 -2.44141,0.00781c-1.99609,-0.13281 -1.99609,-0.13281 -2.99609,-1.13281c-0.01667,-1.63713 0.037,-3.2751 0.12109,-4.91016c0.04834,-0.98935 0.09668,-1.97871 0.14649,-2.99805c0.05607,-1.04092 0.11214,-2.08183 0.16992,-3.15429c0.0522,-1.04478 0.10442,-2.08957 0.15821,-3.16602c0.13013,-2.59077 0.2651,-5.18119 0.40429,-7.77148c-1.65,-0.33 -3.3,-0.66 -5,-1c-1.125,-6.75 -1.125,-6.75 0,-9c6.56017,-1.49095 13.30976,-1.09054 20,-1z" fill="#f00000"/><g fill="#ffffff"><path d="M265.33727,184.51988c2.4375,2.0625 2.4375,2.0625 4,4c0.53625,-0.63938 1.0725,-1.27875 1.625,-1.9375c2.9695,-2.57878 4.44975,-2.98702 8.375,-3.0625c2.7995,0.79842 5.31486,1.84261 8,3c0.66,-0.66 1.32,-1.32 2,-2c1.875,-0.26562 1.875,-0.26562 4,-0.25c0.70125,-0.00516 1.4025,-0.01031 2.125,-0.01562c1.875,0.26563 1.875,0.26563 3.875,2.26563c0.23047,3.23047 0.23047,3.23047 0.1875,7.1875c-0.00644,1.29293 -0.01289,2.58586 -0.01953,3.91797c-0.16068,3.72558 -0.57236,7.22077 -1.16797,10.89453c1.32,0 2.64,0 4,0c-0.00524,-0.6915 -0.01047,-1.383 -0.01587,-2.09546c-0.02071,-3.114 -0.03377,-6.22799 -0.04663,-9.34204c-0.00838,-1.08862 -0.01675,-2.17723 -0.02539,-3.29883c-0.00322,-1.03447 -0.00644,-2.06895 -0.00976,-3.13477c-0.00524,-0.95834 -0.01047,-1.91667 -0.01587,-2.90405c0.11352,-2.22485 0.11352,-2.22485 1.11352,-3.22485c1.49738,-0.0979 2.99943,-0.12975 4.5,-0.125c0.81468,-0.00258 1.62937,-0.00516 2.46875,-0.00782c2.03125,0.13281 2.03125,0.13282 3.03125,1.13282c0.08714,1.70773 0.107,3.41898 0.09765,5.1289c-0.00484,1.55171 -0.00483,1.55171 -0.00976,3.13477c-0.01257,1.63292 -0.01257,1.63292 -0.02539,3.29883c-0.00451,1.09248 -0.00902,2.18496 -0.01367,3.31054c-0.01183,2.70904 -0.02832,5.41797 -0.04883,8.12696c1.32,0 2.64,0 4,0c-0.165,-0.94875 -0.33,-1.8975 -0.5,-2.875c-1.04701,-7.49597 -0.75119,-13.86426 1.5,-21.125c2.62561,-0.08074 5.24876,-0.14036 7.875,-0.1875c1.11955,-0.0377 1.11955,-0.03771 2.26172,-0.07617c2.16797,-0.02929 2.16797,-0.0293 5.86328,0.26367c0.99,1.485 0.99,1.485 2,3c1.01063,-0.68062 2.02125,-1.36125 3.0625,-2.0625c3.20815,-2.16059 5.13952,-1.77371 8.85091,-1.18743c3.95156,0.4733 7.91465,0.30818 11.88737,0.24211c1.88216,-0.01749 3.76432,-0.0344 5.64649,-0.05078c2.9475,-0.0311 5.89473,-0.06686 8.84204,-0.11279c2.85803,-0.04215 5.71572,-0.06571 8.57397,-0.08643c0.88641,-0.01862 1.77284,-0.03724 2.68612,-0.05642c2.47917,-0.01047 2.47917,-0.01046 6.4506,0.31424c0.99,1.485 0.99,1.485 2,3c0.66,-0.99 1.32,-1.98 2,-3c2.58203,-0.37231 2.58203,-0.37232 5.8125,-0.36328c1.73636,0.00097 1.73637,0.00097 3.50781,0.00195c1.21429,0.01612 2.42859,0.03223 3.67969,0.04883c1.21429,-0.00322 2.42859,-0.00645 3.67969,-0.00977c9.05349,0.05545 9.05349,0.05545 11.32031,2.32227c0.33871,6.32258 0.33871,6.32258 -1,9c-0.03015,2.30883 0.06653,4.59934 0.16015,6.90625c-0.16015,2.09375 -0.16015,2.09375 -2.16015,4.09375c0.66,0.33 1.32,0.66 2,1c0.48438,1.99609 0.48438,1.99609 0.75,4.4375c0.09797,0.80309 0.19594,1.60618 0.29688,2.43359c-0.04687,2.12891 -0.04687,2.12891 -2.04687,4.12891c-2.57535,0.00877 -5.0068,-0.09181 -7.5625,-0.3125c-0.69802,-0.04834 -1.39605,-0.09668 -2.11523,-0.14649c-5.17802,-0.39676 -5.17802,-0.39676 -6.32227,-1.54101c-0.32527,-3.3611 -0.5136,-6.72334 -0.71875,-10.09375c0.04015,-2.79675 0.04015,-2.79675 -1.28125,-3.90625c-0.36352,1.58942 -0.36352,1.58941 -0.73437,3.21093c-0.33768,1.38823 -0.67627,2.77625 -1.01562,4.16407c-0.15726,0.69867 -0.31453,1.39734 -0.47656,2.11718c-1.26124,5.04495 -1.26124,5.04495 -3.47656,7.04688c-2.29687,0.46094 -2.29687,0.46094 -9.29687,-0.53906c-1.65,-5.94 -3.3,-11.88 -5,-18c-0.24936,5.17507 -0.24936,5.17507 -0.47803,10.35107c-0.29975,5.4267 -0.29976,5.42671 -2.52197,7.64893c-2.71455,0.32752 -5.25231,0.13084 -8,0c-1,-1 -1,-1 -1.11352,-3.13306c0.00786,-1.37466 0.00786,-1.37466 0.01587,-2.7771c0.00484,-1.48404 0.00483,-1.48404 0.00976,-2.99805c0.01257,-1.56137 0.01257,-1.56137 0.02539,-3.15429c0.00451,-1.04478 0.00902,-2.08957 0.01367,-3.16602c0.01183,-2.59055 0.02832,-5.18099 0.04883,-7.77148c-1.32,0 -2.64,0 -4,0c0.04077,0.62568 0.08154,1.25135 0.12354,1.89599c0.17802,2.82577 0.33993,5.65224 0.50146,8.47901c0.06446,0.98485 0.12891,1.96968 0.19531,2.98438c0.05156,0.94101 0.10312,1.88203 0.15625,2.85156c0.05237,0.86931 0.10474,1.73863 0.15869,2.63428c-0.13525,2.15479 -0.13525,2.15479 -2.13525,4.15479c-3.3,0 -6.6,0 -10,0c0,-7.59 0,-15.18 0,-23c-4.41916,-0.88383 -5.92112,-0.99216 -10,0c-0.66,0 -1.32,0 -2,0c-1.49297,2.98594 -1.11755,5.70854 -1,9c0.495,0.99 0.495,0.99 1,2c2.31,0 4.62,0 7,0c1.32527,2.72849 2.00854,4.63275 1.9375,7.6875c-0.9375,2.3125 -0.9375,2.3125 -3,3.6875c-3.85438,0.82008 -7.14924,0.75594 -10.9375,-0.375c-2.5,-2.0625 -2.5,-2.0625 -4,-4c-0.99,1.65 -1.98,3.3 -3,5c-1.07121,-0.08379 -2.14243,-0.16757 -3.2461,-0.25391c-1.39711,-0.10315 -2.79425,-0.206 -4.1914,-0.30859c-0.70705,-0.05607 -1.41411,-0.11215 -2.14258,-0.16992c-1.8042,-0.12949 -3.61224,-0.20279 -5.41992,-0.26758c-0.33,0.33 -0.66,0.66 -1,1c-2.14559,0.08775 -4.29404,0.10695 -6.4414,0.09765c-1.30518,-0.00322 -2.61036,-0.00644 -3.95508,-0.00976c-1.38867,-0.00835 -2.77735,-0.01682 -4.16602,-0.02539c-1.39258,-0.00501 -2.78515,-0.00958 -4.17773,-0.01367c-3.41996,-0.01183 -6.83985,-0.02832 -10.25977,-0.04883c-0.66,-1.65 -1.32,-3.3 -2,-5c-0.30937,0.63938 -0.61875,1.27875 -0.9375,1.9375c-2.77826,2.77826 -4.99594,2.95198 -8.83203,3.24609c-3.32259,-0.27349 -5.00308,-1.8125 -7.23047,-4.18359c-0.33,0.47438 -0.66,0.94875 -1,1.4375c-3.02576,2.36387 -6.26634,2.67231 -10,2.5625c-4.60241,-1.77821 -6.59348,-4.78859 -9,-9c-2.3645,-7.54462 -1.43498,-15.00737 2,-22c4.34956,-4.21364 8.23549,-4.31472 14,-3zM267.33727,191.51988c-0.33,1.32 -0.66,2.64 -1,4c-2.97,-0.495 -2.97,-0.495 -6,-1c-2.45812,3.68717 -2.31118,5.64345 -2,10c0.99,1.485 0.99,1.485 2,3c3.465,-0.495 3.465,-0.495 7,-1c0.33,-4.95 0.66,-9.9 1,-15c-0.33,0 -0.66,0 -1,0zM277.33727,201.51988c1,3 1,3 1,3zM327.33727,205.51988c0,0.33 0,0.66 0,1c2.31,0.33 4.62,0.66 7,1c0,-0.66 0,-1.32 0,-2c-2.31,0 -4.62,0 -7,0z"/><path d="M175.21227,184.45738c2.125,1.0625 2.125,1.0625 3.125,2.0625c0.33,-0.66 0.66,-1.32 1,-2c2.21484,-0.48437 2.21484,-0.48437 4.9375,-0.75c0.8959,-0.09797 1.7918,-0.19594 2.71484,-0.29687c2.34766,0.04688 2.34766,0.04688 4.34766,2.04688c0.66,-0.66 1.32,-1.32 2,-2c2.67578,0.02344 2.67578,0.02344 6.3125,0.375c9.66368,0.82954 19.31841,0.65417 29.00904,0.49951c1.22163,-0.01144 2.44326,-0.02288 3.7019,-0.03466c1.10263,-0.01684 2.20526,-0.03368 3.34131,-0.05103c2.63526,0.21118 2.63526,0.21118 4.63526,2.21118c0.33871,6.32258 0.33871,6.32258 -1,9c-0.03016,2.30883 0.06653,4.59934 0.16016,6.90625c-0.16016,2.09375 -0.16016,2.09375 -2.16016,4.09375c0.495,0.35063 0.99,0.70125 1.5,1.0625c2.26982,2.93186 1.82646,5.34645 1.5,8.9375c-2,2 -2,2 -5.44141,2.01172c-1.37452,-0.09714 -2.74826,-0.20567 -4.12109,-0.32422c-0.69803,-0.04834 -1.39606,-0.09668 -2.11524,-0.14649c-5.17801,-0.39676 -5.17801,-0.39676 -6.32226,-1.54101c-0.15686,-1.55948 -0.25077,-3.12543 -0.31641,-4.69141c-0.0419,-0.94424 -0.08379,-1.88848 -0.12696,-2.86133c-0.03931,-0.99322 -0.07863,-1.98644 -0.11914,-3.00976c-0.04318,-0.99709 -0.08637,-1.99418 -0.13086,-3.02149c-0.10645,-2.47186 -0.20846,-4.94382 -0.30664,-7.41601c-0.99,0 -1.98,0 -3,0c0,7.26 0,14.52 0,22c-2.40545,1.20273 -3.94997,1.10072 -6.625,1.0625c-1.2259,-0.01353 -1.2259,-0.01354 -2.47656,-0.02735c-0.62649,-0.0116 -1.25297,-0.0232 -1.89844,-0.03515c-1.32575,-4.82182 -0.90062,-9.38832 -0.5625,-14.3125c0.0522,-0.83596 0.10442,-1.67192 0.15821,-2.53321c0.12897,-2.05181 0.26584,-4.10311 0.40429,-6.15429c-2.475,-0.495 -2.475,-0.495 -5,-1c-3.71232,6.9589 -5.5684,12.74827 -5.76172,20.66406c-0.07863,0.77086 -0.15726,1.54172 -0.23828,2.33594c-3.25303,1.62652 -6.39226,1.11453 -10,1c-1.86165,-1.86165 -1.26376,-5.06479 -1.375,-7.5625c-0.36005,-5.77843 -1.21506,-10.19849 -3.625,-15.4375c-0.79953,3.28696 -1.09659,4.71023 0,8c0.36868,4.97726 0.16457,8.0443 -3,12c-3.48929,2.32082 -6.56994,2.23822 -10.6875,2.1875c-1.7383,-0.00967 -1.7383,-0.00967 -3.51172,-0.01953c-2.80078,-0.16797 -2.80078,-0.16797 -3.80078,-1.16797c-0.07206,-1.68609 -0.08386,-3.375 -0.0625,-5.0625c0.00903,-0.9191 0.01805,-1.8382 0.02734,-2.78516c0.0116,-0.71027 0.0232,-1.42055 0.03516,-2.15234c-0.99,0.33 -1.98,0.66 -3,1c-1.85053,0.14298 -3.7067,0.22035 -5.5625,0.25c-0.97066,0.02578 -1.94133,0.05156 -2.94141,0.07813c-0.82371,-0.10828 -1.64742,-0.21657 -2.49609,-0.32812c-2.3002,-3.45029 -2.43132,-4.94555 -2,-9c3.38122,-2.25415 4.60647,-2.24544 8.5625,-2.1875c1.456,0.00967 1.456,0.00966 2.94141,0.01953c2.49609,0.16797 2.49609,0.16797 4.49609,1.16797c0,-3.96 0,-7.92 0,-12c5.48086,-2.19234 9.22231,-2.90577 14.875,-1.0625z"/><path d="M83.33727,186.51988c0.66,-0.66 1.32,-1.32 2,-2c2.72697,-0.17171 5.33907,-0.23245 8.0625,-0.1875c0.74572,0.00064 1.49144,0.00129 2.25977,0.00195c5.53745,0.04527 5.53745,0.04527 6.67773,1.18555c0.2388,7.52239 0.2388,7.52239 -1,10c-0.03015,2.30883 0.06653,4.59934 0.16016,6.90625c-0.16016,2.09375 -0.16016,2.09375 -2.16016,4.09375c0.99,0.33 1.98,0.66 3,1c2.31,-7.59 4.62,-15.18 7,-23c2.97,0 5.94,0 9,0c2.20838,6.96578 4.32013,13.95212 6.25,21c0.33516,1.21687 0.67031,2.43375 1.01563,3.6875c0.64691,2.91796 0.89181,5.3438 0.73438,8.3125c-3.21452,1.60726 -6.43613,1.05748 -10,1c-0.33,-0.99 -0.66,-1.98 -1,-3c-1.32,0 -2.64,0 -4,0c-0.33,0.99 -0.66,1.98 -1,3c-19.80522,0.26021 -19.80522,0.26021 -25,-1c-0.66,-0.99 -1.32,-1.98 -2,-3c-0.51047,0.49114 -1.02094,0.98226 -1.54687,1.48828c-3.34762,2.06294 -5.80523,1.8075 -9.70312,1.69922c-1.26328,-0.02707 -2.52656,-0.05414 -3.82812,-0.08203c-0.96422,-0.03481 -1.92844,-0.06961 -2.92187,-0.10547c-0.75741,-4.04504 -1.12819,-7.87099 -1.13281,-11.98437c-0.00129,-1.09957 -0.00258,-2.19914 -0.00391,-3.33203c0.00387,-1.13308 0.00773,-2.26618 0.01172,-3.43359c-0.00387,-1.14855 -0.00773,-2.29711 -0.01172,-3.48047c0.00129,-1.09441 0.00258,-2.18882 0.00391,-3.3164c0.00113,-0.9987 0.00226,-1.99741 0.00342,-3.02637c0.1294,-2.42676 0.1294,-2.42675 1.1294,-4.42675c6.05971,-1.66642 12.73634,-1.50911 18,2z"/><path d="M265.33727,184.51988c2.4375,2.0625 2.4375,2.0625 4,4c0.53625,-0.63938 1.0725,-1.27875 1.625,-1.9375c2.9695,-2.57878 4.44975,-2.98702 8.375,-3.0625c2.7995,0.79842 5.31486,1.84261 8,3c0.66,-0.66 1.32,-1.32 2,-2c1.875,-0.26562 1.875,-0.26562 4,-0.25c0.70125,-0.00516 1.4025,-0.01031 2.125,-0.01562c1.875,0.26563 1.875,0.26563 3.875,2.26563c0.23047,3.23047 0.23047,3.23047 0.1875,7.1875c-0.00644,1.29293 -0.01289,2.58586 -0.01953,3.91797c-0.16068,3.72558 -0.57236,7.22077 -1.16797,10.89453c0.66,0.33 1.32,0.66 2,1c-0.99,0 -1.98,0 -3,0c0,-7.59 0,-15.18 0,-23c-2.64,0 -5.28,0 -8,0c0.33,9.9 0.66,19.8 1,30c3.3,0.33 6.6,0.66 10,1c0,0.33 0,0.66 0,1c-3.96,0 -7.92,0 -12,0c-0.66,-1.65 -1.32,-3.3 -2,-5c-0.30937,0.63938 -0.61875,1.27875 -0.9375,1.9375c-2.77826,2.77826 -4.99594,2.95198 -8.83203,3.24609c-3.32259,-0.27349 -5.00308,-1.8125 -7.23047,-4.18359c-0.33,0.47438 -0.66,0.94875 -1,1.4375c-3.02576,2.36387 -6.26634,2.67231 -10,2.5625c-4.60241,-1.77821 -6.59348,-4.78859 -9,-9c-2.3645,-7.54462 -1.43498,-15.00737 2,-22c4.34956,-4.21364 8.23549,-4.31472 14,-3zM267.33727,191.51988c-0.33,1.32 -0.66,2.64 -1,4c-2.97,-0.495 -2.97,-0.495 -6,-1c-2.45812,3.68717 -2.31118,5.64345 -2,10c0.99,1.485 0.99,1.485 2,3c3.465,-0.495 3.465,-0.495 7,-1c0.33,-4.95 0.66,-9.9 1,-15c-0.33,0 -0.66,0 -1,0zM277.33727,201.51988c1,3 1,3 1,3z"/><path d="M335.33727,203.51988c1.08998,2.21526 1.98111,4.4834 2.90235,6.77343c1.12726,2.28661 2.10181,3.65196 4.09765,5.22657c3.54295,0.30153 6.60445,0.04478 10,-1c0,-0.99 0,-1.98 0,-3c0.66,0 1.32,0 2,0c-0.1875,2.375 -0.1875,2.375 -1,5c-3.6033,2.40221 -7.00603,2.18989 -11.1289,1.55859c-2.72489,-0.81348 -4.15989,-2.34829 -5.8711,-4.55859c-0.99,1.65 -1.98,3.3 -3,5c-2.48021,-0.11342 -4.95845,-0.24015 -7.4375,-0.375c-0.70705,-0.03093 -1.41411,-0.06187 -2.14258,-0.09375c-1.81232,-0.10405 -3.6181,-0.31045 -5.41992,-0.53125c-0.33,-0.66 -0.66,-1.32 -1,-2c5.28,0.33 10.56,0.66 16,1c-0.33,-2.31 -0.66,-4.62 -1,-7c-2.97,-0.495 -2.97,-0.495 -6,-1c0,-1.65 0,-3.3 0,-5c6.75,-1.125 6.75,-1.125 9,0zM327.33727,205.51988c0,0.33 0,0.66 0,1c2.31,0.33 4.62,0.66 7,1c0,-0.66 0,-1.32 0,-2c-2.31,0 -4.62,0 -7,0z"/><path d="M371.79039,184.19761c1.11858,0.00326 1.11858,0.00326 2.25977,0.00659c2.27848,0.00316 4.55566,-0.0203 6.83398,-0.04565c1.4427,-0.00227 2.88542,-0.00297 4.32813,-0.00195c1.97613,-0.00447 1.97613,-0.00448 3.99219,-0.00904c1.03383,0.12286 2.06766,0.24573 3.13281,0.37232c2,3 2,3 2,6c-0.66,0 -1.32,0 -2,0c-0.495,-1.485 -0.495,-1.485 -1,-3c-2.64,-0.33 -5.28,-0.66 -8,-1c-0.33,0.66 -0.66,1.32 -1,2c-0.66,-0.66 -1.32,-1.32 -2,-2c-1.65,0 -3.3,0 -5,0c-0.33,9.57 -0.66,19.14 -1,29c-0.33,0 -0.66,0 -1,0c-0.33,-6.27 -0.66,-12.54 -1,-19c-2.475,-0.99 -2.475,-0.99 -5,-2c1.32,-0.33 2.64,-0.66 4,-1c0,-2.64 0,-5.28 0,-8c-6.435,0.495 -6.435,0.495 -13,1c3.50237,-3.50237 8.71812,-2.30396 13.45313,-2.32227z"/><path d="M265.33727,190.51988c0.66,0.33 1.32,0.66 2,1c-0.33,1.32 -0.66,2.64 -1,4c-1.98,0 -3.96,0 -6,0c-1.49297,2.98594 -1.11755,5.70854 -1,9c0.33,0.66 0.66,1.32 1,2c3.465,-0.495 3.465,-0.495 7,-1c0.33,-2.97 0.66,-5.94 1,-9c0.33,0 0.66,0 1,0c0.06059,0.97582 0.12118,1.95164 0.1836,2.95703c0.08379,1.2723 0.16757,2.54461 0.2539,3.85547c0.08121,1.26457 0.16243,2.52914 0.2461,3.83203c0.18825,3.34729 0.18825,3.34729 1.3164,6.35547c-4.875,-1.75 -4.875,-1.75 -6,-4c-0.92813,0.10313 -1.85625,0.20625 -2.8125,0.3125c-3.1875,-0.3125 -3.1875,-0.3125 -5.0625,-2.3125c-1.51875,-4.05002 -1.53731,-6.6708 -1.125,-11c1.5,-2.5 1.5,-2.5 3,-4c2.97,0.495 2.97,0.495 6,1c0,-0.99 0,-1.98 0,-3z"/><path d="M305.36852,184.38706c0.81468,0.00258 1.62937,0.00516 2.46875,0.00782c0.81468,-0.00258 1.62937,-0.00516 2.46875,-0.00782c2.03125,0.13281 2.03125,0.13282 3.03125,1.13282c0.08714,1.70773 0.107,3.41898 0.09765,5.1289c-0.00322,1.03447 -0.00644,2.06895 -0.00976,3.13477c-0.00838,1.08862 -0.01675,2.17723 -0.02539,3.29883c-0.00451,1.09248 -0.00902,2.18496 -0.01367,3.31054c-0.01183,2.70904 -0.02832,5.41797 -0.04883,8.12696c0.99,0.33 1.98,0.66 3,1c0,0.33 0,0.66 0,1c-1.65,0 -3.3,0 -5,0c0,-7.59 0,-15.18 0,-23c-2.31,-0.33 -4.62,-0.66 -7,-1c0,9.57 0,19.14 0,29c-0.33,0 -0.66,0 -1,0c-0.16728,-4.25393 -0.32787,-8.50804 -0.48218,-12.76245c-0.05349,-1.44831 -0.10882,-2.89656 -0.16601,-4.34473c-0.08173,-2.07741 -0.15688,-4.15497 -0.23071,-6.23267c-0.04713,-1.2516 -0.09427,-2.5032 -0.14283,-3.79272c0.02882,-3.80251 0.02882,-3.80251 3.05298,-4.00025z"/><path d="M404.33727,184.51988c5.61,0 11.22,0 17,0c0,0.33 0,0.66 0,1c-4.29,0 -8.58,0 -13,0c-0.33,2.31 -0.66,4.62 -1,7c-0.66,0 -1.32,0 -2,0c-0.33,-2.64 -0.66,-5.28 -1,-8z"/><path d="M342.33727,195.51988c0.66,0 1.32,0 2,0c-0.33,2.97 -0.66,5.94 -1,9c-0.66,0 -1.32,0 -2,0c-0.09765,-6.15234 -0.09765,-6.15234 0,-8c0.33,-0.33 0.66,-0.66 1,-1z"/><path d="M145.33727,184.51988c1.50662,3.01324 1.17771,5.68286 1,9c-0.66,0.66 -1.32,1.32 -2,2c-0.99,0 -1.98,0 -3,0c0,7.26 0,14.52 0,22c-2.37966,1.18983 -3.91485,1.1335 -6.5625,1.125c-1.20849,0.00386 -1.20849,0.00386 -2.44141,0.00781c-1.99609,-0.13281 -1.99609,-0.13281 -2.99609,-1.13281c-0.01667,-1.63713 0.037,-3.2751 0.12109,-4.91016c0.04834,-0.98935 0.09668,-1.97871 0.14649,-2.99805c0.05607,-1.04092 0.11214,-2.08183 0.16992,-3.15429c0.0522,-1.04478 0.10442,-2.08957 0.15821,-3.16602c0.13013,-2.59077 0.2651,-5.18119 0.40429,-7.77148c-1.65,-0.33 -3.3,-0.66 -5,-1c-1.125,-6.75 -1.125,-6.75 0,-9c6.56017,-1.49095 13.30976,-1.09054 20,-1zM132.58727,185.95738c-1.44633,0.12181 -1.44633,0.12182 -2.92187,0.24609c-2.28478,0.07126 -2.28478,0.07125 -3.32812,1.31641c-0.04081,1.99958 -0.04255,4.00045 0,6c1.65,0 3.3,0 5,0c0,7.59 0,15.18 0,23c2.64,0 5.28,0 8,0c0,-7.59 0,-15.18 0,-23c1.65,-0.33 3.3,-0.66 5,-1c0.04254,-1.99955 0.04081,-4.00042 0,-6c-1.02435,-1.25026 -1.02435,-1.25026 -3.20312,-1.08985c-2.8621,0.09194 -5.69432,0.27679 -8.54687,0.52735z"/><path d="M130.33727,194.51988c0.33,0 0.66,0 1,0c0,7.26 0,14.52 0,22c3.96,-0.495 3.96,-0.495 8,-1c0.33,-6.93 0.66,-13.86 1,-21c0.66,0.33 1.32,0.66 2,1c-0.33,7.26 -0.66,14.52 -1,22c-2.37966,1.18983 -3.91485,1.1335 -6.5625,1.125c-1.20849,0.00386 -1.20849,0.00386 -2.44141,0.00781c-1.99609,-0.13281 -1.99609,-0.13281 -2.99609,-1.13281c-0.0167,-1.71003 0.03709,-3.42086 0.12109,-5.12891c0.04834,-1.03447 0.09668,-2.06895 0.14649,-3.13477c0.05607,-1.08862 0.11214,-2.17723 0.16992,-3.29883c0.0522,-1.09248 0.10442,-2.18496 0.15821,-3.31055c0.13014,-2.70925 0.26511,-5.41816 0.40429,-8.12695z"/></g><path d="M396.33727,184.51988c4.29161,-0.05784 8.58312,-0.09354 12.875,-0.125c1.22332,-0.01676 2.44664,-0.03351 3.70703,-0.05078c1.1666,-0.00645 2.33321,-0.0129 3.53516,-0.01954c1.07878,-0.01048 2.15757,-0.02095 3.26904,-0.03173c2.61377,0.22705 2.61377,0.22705 4.61377,2.22705c0.33871,6.32258 0.33871,6.32258 -1,9c-0.03015,2.30883 0.06653,4.59934 0.16015,6.90625c-0.16015,2.09375 -0.16015,2.09375 -2.16015,4.09375c0.66,0.33 1.32,0.66 2,1c0.48438,1.99609 0.48438,1.99609 0.75,4.4375c0.14695,1.20463 0.14695,1.20463 0.29688,2.43359c-0.04687,2.12891 -0.04687,2.12891 -2.04687,4.12891c-2.57535,0.00877 -5.0068,-0.09181 -7.5625,-0.3125c-0.69802,-0.04834 -1.39605,-0.09668 -2.11523,-0.14649c-5.17802,-0.39676 -5.17802,-0.39676 -6.32227,-1.54101c-0.32527,-3.3611 -0.5136,-6.72334 -0.71875,-10.09375c0.04015,-2.79675 0.04015,-2.79675 -1.28125,-3.90625c-0.24235,1.05961 -0.48469,2.11921 -0.73437,3.21093c-0.33768,1.38823 -0.67627,2.77625 -1.01562,4.16407c-0.15726,0.69867 -0.31453,1.39734 -0.47656,2.11718c-1.26124,5.04495 -1.26124,5.04495 -3.47656,7.04688c-2.29687,0.46094 -2.29687,0.46094 -9.29687,-0.53906c-1.65,-5.94 -3.3,-11.88 -5,-18c-0.24936,5.17507 -0.24936,5.17507 -0.47803,10.35107c-0.29975,5.4267 -0.29976,5.42671 -2.52197,7.64893c-2.71455,0.32752 -5.25231,0.13084 -8,0c-1,-1 -1,-1 -1.11352,-3.04126c0.00524,-0.87455 0.01047,-1.74909 0.01587,-2.65014c0.00322,-0.94424 0.00644,-1.88848 0.00976,-2.86133c0.00838,-0.99322 0.01675,-1.98644 0.02539,-3.00976c0.00451,-0.99709 0.00902,-1.99418 0.01367,-3.02149c0.01183,-2.47206 0.02831,-4.94401 0.04883,-7.41601c0.33,0 0.66,0 1,0c0.33,6.27 0.66,12.54 1,19c1.98,0 3.96,0 6,0c0.9216,-6.2117 1.12178,-12.22609 1.0625,-18.5c-0.00451,-0.91781 -0.00902,-1.83562 -0.01367,-2.78125c-0.01166,-2.23965 -0.02803,-4.47916 -0.04883,-6.71875c0.99,-0.33 1.98,-0.66 3,-1c2.45871,10.30911 4.82977,20.62563 7,31c2.97,-0.495 2.97,-0.495 6,-1c2.80217,-9.96819 5.57193,-19.9324 8,-30c-2.64,0 -5.28,0 -8,0c-0.12375,1.25813 -0.2475,2.51625 -0.375,3.8125c-0.32368,3.29075 -0.69105,4.28657 -2.625,7.1875c-0.33,-2.31 -0.66,-4.62 -1,-7c0.66,0 1.32,0 2,0c0.33,-1.98 0.66,-3.96 1,-6z" fill="#ffffff"/><path d="M72.58727,185.14488c4.09231,0.04257 5.43905,0.1677 8.9375,2.5c2.11875,3.36078 2.31051,4.97395 1.8125,8.875c-0.33334,1.33334 -0.66666,2.66666 -1,4c0.33,0.66 0.66,1.32 1,2c0.59373,4.39365 0.79804,7.83144 -1.75,11.5625c-3.54374,1.56743 -5.62013,1.58675 -9.45312,1.52734c-1.08442,-0.01297 -2.16885,-0.02595 -3.28614,-0.03931c-0.82855,-0.01667 -1.65709,-0.03335 -2.51074,-0.05053c-0.02465,-4.11173 -0.04284,-8.22342 -0.05493,-12.33521c-0.00504,-1.39974 -0.01188,-2.79949 -0.02051,-4.19922c-0.01208,-2.00804 -0.01726,-4.01611 -0.02222,-6.02417c-0.00523,-1.20971 -0.01047,-2.41941 -0.01587,-3.66577c0.19197,-4.69365 2.11245,-4.00287 6.36352,-4.15063z" fill="#f50000"/><path d="M168.58727,185.08238c6.30075,0.09025 6.30075,0.09025 9,2.8125c2.49608,3.71738 1.78062,7.31906 1.04688,11.55078c-0.09797,0.68449 -0.19594,1.36899 -0.29687,2.07422c0.33,0.33 0.66,0.66 1,1c0.46406,4.64062 0.61536,6.9451 -1.75,11c-3.68616,2.26841 -5.21778,2.21633 -9.45312,2.125c-1.08443,-0.01805 -2.16885,-0.0361 -3.28614,-0.05469c-0.82854,-0.0232 -1.65709,-0.0464 -2.51074,-0.07031c-0.02465,-4.11173 -0.04284,-8.22342 -0.05493,-12.33521c-0.00504,-1.39974 -0.01188,-2.79949 -0.02051,-4.19922c-0.01209,-2.00804 -0.01725,-4.01611 -0.02221,-6.02417c-0.00523,-1.20971 -0.01048,-2.41941 -0.01587,-3.66577c0.19135,-4.6784 2.11525,-4.02571 6.36353,-4.21313z" fill="#e70000"/><path d="M275.33727,185.51988c3.84005,0.14222 6.25243,0.44916 9.375,2.75c3.79143,5.24967 3.36183,13.051 2.625,19.25c-1.54336,3.72019 -3.31346,7.15673 -7,9c-2.8125,0.4375 -2.8125,0.4375 -6,0c-3.41102,-3.19595 -5.26049,-5.37771 -5.6289,-10.09375c-0.00394,-1.46891 0.01867,-2.93811 0.0664,-4.40625c-0.01096,-0.73347 -0.02192,-1.46695 -0.03321,-2.22266c0.08288,-6.17758 2.19506,-9.8767 6.59571,-14.27734zM277.33727,201.51988c1,3 1,3 1,3z" fill="#9b207c"/><path d="M111.33727,186.51988c3.125,-0.1875 3.125,-0.1875 6,0c0.14099,0.57968 0.28198,1.15935 0.42724,1.75659c0.64548,2.64458 1.29657,5.28774 1.94776,7.93091c0.22172,0.91201 0.44344,1.82402 0.67188,2.76367c1.07201,4.33533 2.23704,8.41752 3.95313,12.54883c0.125,2.8125 0.125,2.8125 0,5c-2.31,0 -4.62,0 -7,0c-0.33,-0.99 -0.66,-1.98 -1,-3c-1.98,0 -3.96,0 -6,0c-0.33,0.99 -0.66,1.98 -1,3c-1.98,0 -3.96,0 -6,0c-1.44553,-2.89106 -0.50211,-4.47643 0.36328,-7.5586c0.31002,-1.10795 0.62004,-2.21589 0.93945,-3.35742c0.33322,-1.16209 0.66644,-2.32418 1.00977,-3.52148c0.32162,-1.15822 0.64324,-2.31645 0.97461,-3.50977c2.45019,-8.65868 2.45019,-8.65868 4.71289,-12.05273z" fill="#f30000"/><path d="M384.33727,186.51988c2.31,0 4.62,0 7,0c1.32,2.64 2.64,5.28 4,8c0.66,-2.64 1.32,-5.28 2,-8c2.64,0 5.28,0 8,0c-0.51895,6.48685 -2.16839,12.40564 -4.01562,18.63672c-0.79508,2.71655 -1.51722,5.42327 -2.17187,8.17578c-0.8125,3.1875 -0.8125,3.1875 -1.8125,4.1875c-1.99959,0.04081 -4.00045,0.04254 -6,0c-0.99401,-3.28736 -1.96736,-6.58052 -2.9375,-9.875c-0.2778,-0.91781 -0.55559,-1.83562 -0.84179,-2.78125c-1.78794,-6.11775 -2.82729,-11.98158 -3.22071,-18.34375z" fill="#7f2cab"/><path d="M227.49742,186.42222c1.93166,0.0174 1.93166,0.0174 3.90234,0.03516c1.29035,0.00903 2.5807,0.01805 3.91016,0.02734c0.99902,0.0116 1.99805,0.0232 3.02734,0.03516c0.04254,1.99955 0.04081,4.00042 0,6c-1,1 -1,1 -4.5625,1.0625c-1.13438,-0.02062 -2.26875,-0.04125 -3.4375,-0.0625c0,0.99 0,1.98 0,3c2.31,0 4.62,0 7,0c1.125,4.75 1.125,4.75 0,7c-1.98,0 -3.96,0 -6,0c0,1.65 0,3.3 0,5c1.45406,-0.03093 1.45406,-0.03093 2.9375,-0.0625c3.0625,0.0625 3.0625,0.0625 4.0625,1.0625c0.125,3 0.125,3 0,6c-1,1 -1,1 -3.65234,1.13281c-1.0841,-0.00258 -2.1682,-0.00515 -3.28516,-0.00781c-1.62229,0.00386 -1.62229,0.00386 -3.27734,0.00781c-2.78516,-0.13281 -2.78516,-0.13281 -4.78516,-1.13281c-0.02466,-3.96931 -0.04284,-7.93859 -0.05493,-11.90796c-0.00504,-1.35125 -0.01187,-2.70249 -0.02051,-4.05371c-0.01209,-1.93854 -0.01725,-3.87711 -0.02221,-5.81567c-0.00523,-1.16781 -0.01048,-2.33562 -0.01587,-3.53882c0.16416,-3.88094 0.32372,-3.65942 4.27368,-3.78149z" fill="#e5030c"/><path d="M411.49741,186.42222c1.93166,0.0174 1.93166,0.0174 3.90235,0.03516c1.29035,0.00903 2.5807,0.01805 3.91015,0.02734c0.99903,0.0116 1.99805,0.0232 3.02735,0.03516c0.04255,1.99955 0.04081,4.00042 0,6c-1,1 -1,1 -4.5625,1.0625c-1.13437,-0.02062 -2.26875,-0.04125 -3.4375,-0.0625c0,0.99 0,1.98 0,3c2.31,0 4.62,0 7,0c0,2.31 0,4.62 0,7c-2.31,0 -4.62,0 -7,0c0,1.65 0,3.3 0,5c1.70157,-0.03093 1.70157,-0.03093 3.4375,-0.0625c3.5625,0.0625 3.5625,0.0625 4.5625,1.0625c0.125,3 0.125,3 0,6c-1,1 -1,1 -3.65235,1.13281c-1.0841,-0.00258 -2.1682,-0.00515 -3.28515,-0.00781c-1.62228,0.00386 -1.62229,0.00386 -3.27735,0.00781c-2.78515,-0.13281 -2.78515,-0.13281 -4.78515,-1.13281c-0.02466,-3.96931 -0.04284,-7.93859 -0.05493,-11.90796c-0.00504,-1.35125 -0.01187,-2.70249 -0.02051,-4.05371c-0.01209,-1.93854 -0.01725,-3.87711 -0.02221,-5.81567c-0.00524,-1.16781 -0.01047,-2.33562 -0.01587,-3.53882c0.16417,-3.88094 0.32372,-3.65942 4.27368,-3.78149z" fill="#7b2ba6"/><path d="M322.49741,186.42222c1.93166,0.0174 1.93166,0.0174 3.90235,0.03516c1.29035,0.00903 2.5807,0.01805 3.91015,0.02734c0.99903,0.0116 1.99805,0.0232 3.02735,0.03516c0.04255,1.99955 0.04081,4.00042 0,6c-1,1 -1,1 -4.5625,1.0625c-1.13437,-0.02062 -2.26875,-0.04125 -3.4375,-0.0625c0,0.99 0,1.98 0,3c2.31,0 4.62,0 7,0c1.125,4.75 1.125,4.75 0,7c-1.98,0 -3.96,0 -6,0c0,1.65 0,3.3 0,5c1.45407,-0.03093 1.45407,-0.03093 2.9375,-0.0625c3.0625,0.0625 3.0625,0.0625 4.0625,1.0625c0.04093,2.33298 0.04242,4.66705 0,7c-2.14576,0.02686 -4.29163,0.04633 -6.4375,0.0625c-1.19496,0.0116 -2.38993,0.0232 -3.6211,0.03515c-2.9414,-0.09766 -2.9414,-0.09765 -3.9414,-1.09765c-0.93243,-6.52701 -1.10355,-12.98076 -1.125,-19.5625c-0.00459,-0.81009 -0.00919,-1.62019 -0.01391,-2.45484c0.01844,-6.94804 0.01844,-6.94804 4.29907,-7.08032z" fill="#7b2ba6"/><path d="M86.33727,186.51988c4.62,0 9.24,0 14,0c0,1.98 0,3.96 0,6c-1,1 -1,1 -4.5625,1.0625c-1.13438,-0.02062 -2.26875,-0.04125 -3.4375,-0.0625c0,0.99 0,1.98 0,3c2.31,0 4.62,0 7,0c1.125,4.75 1.125,4.75 0,7c-1.98,0 -3.96,0 -6,0c0,1.65 0,3.3 0,5c1.45406,-0.03093 1.45406,-0.03093 2.9375,-0.0625c3.0625,0.0625 3.0625,0.0625 4.0625,1.0625c0.04093,2.33298 0.04242,4.66705 0,7c-2.14576,0.02686 -4.29162,0.04633 -6.4375,0.0625c-1.19496,0.0116 -2.38992,0.0232 -3.62109,0.03515c-2.94141,-0.09766 -2.94141,-0.09765 -3.94141,-1.09765c-1.11402,-6.06522 -1.10207,-12.28995 -1.125,-18.4375c-0.00459,-0.69811 -0.00919,-1.39622 -0.01391,-2.11548c0.00941,-3.08979 0.15432,-5.49324 1.13891,-8.44702z" fill="#f20000"/><path d="M181.33727,185.51988c2.31,0 4.62,0 7,0c0.99,1.98 1.98,3.96 3,6c0.99,-1.98 1.98,-3.96 3,-6c2.31,0 4.62,0 7,0c-0.37555,4.31889 -1.19808,7.61264 -3,11.5625c-2.6824,6.28809 -2.80519,12.67775 -3,19.4375c-2.64,0 -5.28,0 -8,0c-0.01418,-0.8598 -0.02836,-1.71961 -0.04297,-2.60547c-0.32688,-8.10128 -1.61007,-14.18132 -4.89844,-21.65234c-1.05859,-2.74219 -1.05859,-2.74218 -1.05859,-6.74218z" fill="#f20000"/><path d="M371.33727,185.51988c0,2.64 0,5.28 0,8c-1.32,0 -2.64,0 -4,0c0.00524,0.66121 0.01047,1.32242 0.01587,2.00366c0.02071,2.97794 0.03377,5.95586 0.04663,8.93384c0.00838,1.04092 0.01675,2.08183 0.02539,3.15429c0.00322,0.98935 0.00644,1.97871 0.00976,2.99805c0.00524,0.91645 0.01047,1.83288 0.01587,2.7771c-0.11352,2.13306 -0.11352,2.13306 -1.11352,3.13306c-2.31,0 -4.62,0 -7,0c0,-7.59 0,-15.18 0,-23c-1.65,0 -3.3,0 -5,0c0,-2.31 0,-4.62 0,-7c5.69506,-0.64169 11.26733,-1.12463 17,-1z" fill="#7c2ba7"/><path d="M220.33726,185.51988c1,1 1,1 1.0625,4.5625c-0.02062,1.13438 -0.04125,2.26875 -0.0625,3.4375c-1.32,0.33 -2.64,0.66 -4,1c-0.33,7.26 -0.66,14.52 -1,22c-2.31,0 -4.62,0 -7,0c0,-7.59 0,-15.18 0,-23c-1.65,0 -3.3,0 -5,0c-1,-1 -1,-1 -1.125,-3.5c0.125,-2.5 0.125,-2.5 1.125,-3.5c1.74399,-0.23702 3.4962,-0.41478 5.25,-0.5625c0.9539,-0.08379 1.90781,-0.16757 2.89063,-0.25391c2.63769,-0.16936 5.21815,-0.2913 7.85938,-0.18359z" fill="#f70001"/><path d="M348.33727,185.51988c0.99,0.66 1.98,1.32 3,2c-0.33,1.98 -0.66,3.96 -1,6c-0.94875,-0.06187 -1.8975,-0.12375 -2.875,-0.1875c-1.54687,0.09282 -1.54687,0.09282 -3.125,0.1875c-2.46934,3.70401 -2.44928,6.70588 -2,11c0.86266,2.40558 0.86266,2.40558 2,4c1.42313,-0.09282 1.42313,-0.09282 2.875,-0.1875c1.03125,0.06187 2.0625,0.12375 3.125,0.1875c2,3 2,3 2,6c-3.43517,2.11395 -6.00669,2.7188 -10,2c-4.19873,-3.64345 -6.77918,-7.28865 -7.23828,-12.92578c-0.24832,-11.33124 -0.24832,-11.33124 4.23828,-16.07422c3.46999,-2.31332 4.92509,-2.33957 9,-2z" fill="#7c2ba7"/><path d="M263.33727,185.51988c0.99,0.66 1.98,1.32 3,2c-0.33,1.98 -0.66,3.96 -1,6c-0.94875,-0.06187 -1.8975,-0.12375 -2.875,-0.1875c-1.54687,0.09282 -1.54687,0.09282 -3.125,0.1875c-2.46934,3.70401 -2.44928,6.70588 -2,11c0.86266,2.40558 0.86266,2.40558 2,4c1.42313,-0.09282 1.42313,-0.09282 2.875,-0.1875c1.03125,0.06187 2.0625,0.12375 3.125,0.1875c2,3 2,3 2,6c-3.41541,2.10179 -6.02251,2.56821 -10,2c-3.69828,-2.94182 -5.55902,-5.54953 -7,-10c-1.28079,-11.89942 -1.28079,-11.89942 1.8125,-16.6875c3.68474,-3.8953 5.9072,-4.75252 11.1875,-4.3125z" fill="#c21144"/><path d="M289.33727,186.51988c2.64,0 5.28,0 8,0c0,7.92 0,15.84 0,24c1.65,0 3.3,0 5,0c0.1875,2.375 0.1875,2.375 0,5c-3.16943,2.11295 -3.9963,2.25251 -7.625,2.1875c-0.79664,-0.00645 -1.59328,-0.01289 -2.41406,-0.01953c-1.96094,-0.16797 -1.96094,-0.16797 -2.96094,-1.16797c-0.08783,-2.21856 -0.10694,-4.43989 -0.09765,-6.66016c0.00142,-0.66447 0.00282,-1.32894 0.00428,-2.01354c0.00561,-2.12965 0.01817,-4.25919 0.03087,-6.38881c0.00502,-1.44075 0.00957,-2.88151 0.01367,-4.32227c0.01105,-3.53844 0.02832,-7.07683 0.04883,-10.61523z" fill="#842796"/><path d="M189.33727,183.51988c0.66,0.66 1.32,1.32 2,2c0.66,-0.66 1.32,-1.32 2,-2c2.67578,0.02344 2.67578,0.02344 6.3125,0.375c9.66368,0.82954 19.31841,0.65417 29.00904,0.49951c1.22163,-0.01144 2.44326,-0.02288 3.7019,-0.03466c1.10263,-0.01684 2.20526,-0.03368 3.34131,-0.05103c2.63526,0.21118 2.63526,0.21118 4.63526,2.21118c0.33871,6.32258 0.33871,6.32258 -1,9c-0.03016,2.30883 0.06653,4.59934 0.16016,6.90625c-0.16016,2.09375 -0.16016,2.09375 -2.16016,4.09375c0.495,0.35063 0.99,0.70125 1.5,1.0625c2.26982,2.93186 1.82646,5.34645 1.5,8.9375c-2,2 -2,2 -5.44141,2.01172c-1.37452,-0.09714 -2.74826,-0.20567 -4.12109,-0.32422c-0.69803,-0.04834 -1.39606,-0.09668 -2.11524,-0.14649c-5.17801,-0.39676 -5.17801,-0.39676 -6.32226,-1.54101c-0.29069,-2.487 -0.51469,-4.9421 -0.6875,-7.4375c-0.05994,-0.69416 -0.11988,-1.38832 -0.18164,-2.10352c-0.12831,-1.81565 -0.13706,-3.63881 -0.13086,-5.45898c0.66,-0.66 1.32,-1.32 2,-2c0,5.28 0,10.56 0,16c4.62,0 9.24,0 14,0c0,-1.98 0,-3.96 0,-6c-1.98,-0.33 -3.96,-0.66 -6,-1c0,-1.65 0,-3.3 0,-5c1.98,0 3.96,0 6,0c0,-1.98 0,-3.96 0,-6c-2.31,-0.33 -4.62,-0.66 -7,-1c0,-0.99 0,-1.98 0,-3c3.465,-0.495 3.465,-0.495 7,-1c0.33,-1.98 0.66,-3.96 1,-6c-2.2924,0.05985 -4.58406,0.14859 -6.875,0.25c-1.27617,0.0464 -2.55234,0.09282 -3.86719,0.14063c-3.34969,0.23493 -3.34969,0.23493 -4.70312,2.65625c-0.18304,0.64453 -0.3661,1.28906 -0.55469,1.95313c-0.66,-1.65 -1.32,-3.3 -2,-5c-1.28778,0.08379 -2.57555,0.16757 -3.90234,0.2539c-1.67837,0.10314 -3.35675,0.20599 -5.03516,0.3086c-0.85013,0.05607 -1.70027,0.11214 -2.57617,0.16992c-0.80889,0.04834 -1.61777,0.09668 -2.45118,0.14648c-0.74886,0.04713 -1.49773,0.09427 -2.26928,0.14283c-1.76587,-0.02173 -1.76587,-0.02173 -2.76587,-1.02173c-2.33298,-0.04093 -4.66705,-0.04242 -7,0c-0.99,1.98 -1.98,3.96 -3,6c-2,-3 -2,-3 -3,-6c-2.97,0 -5.94,0 -9,0c0,-0.66 0,-1.32 0,-2c3.38599,-1.04184 6.46681,-1.23042 10,-1z" fill="#ffffff"/><path d="M304.33727,186.51988c2.33295,-0.04242 4.66703,-0.04093 7,0c1,1 1,1 1.02173,3.22485c-0.04713,0.95834 -0.09427,1.91667 -0.14283,2.90405c-0.04834,1.03447 -0.09668,2.06895 -0.14648,3.13477c-0.05608,1.08862 -0.11214,2.17723 -0.16992,3.29883c-0.05221,1.09248 -0.10442,2.18496 -0.15821,3.31054c-0.13014,2.70925 -0.26511,5.41817 -0.40429,8.12696c1.65,0 3.3,0 5,0c0,1.98 0,3.96 0,6c-2.37966,1.18983 -3.91485,1.1335 -6.5625,1.125c-1.2085,0.00386 -1.20849,0.00386 -2.4414,0.00781c-1.9961,-0.13281 -1.9961,-0.13281 -2.9961,-1.13281c-0.08783,-2.21856 -0.10694,-4.43989 -0.09765,-6.66016c0.00142,-0.66447 0.00282,-1.32894 0.00428,-2.01354c0.00561,-2.12965 0.01817,-4.25919 0.03087,-6.38881c0.00502,-1.44075 0.00957,-2.88151 0.01367,-4.32227c0.01105,-3.53844 0.02832,-7.07683 0.04883,-10.61523z" fill="#802ba7"/><path d="M377.89977,185.45738c1.20657,0.03093 1.20657,0.03093 2.4375,0.0625c1.85039,4.69547 2.2826,8.8841 2.1875,13.875c-0.00717,0.70455 -0.01434,1.4091 -0.02173,2.13501c-0.20339,13.02761 -0.20339,13.02761 -2.16577,14.98999c-1.99959,0.04081 -4.00045,0.04254 -6,0c-0.02465,-4.25414 -0.04284,-8.50825 -0.05493,-12.76245c-0.00504,-1.44825 -0.01187,-2.89649 -0.02051,-4.34473c-0.01209,-2.07757 -0.01779,-4.15507 -0.02221,-6.23267c-0.00524,-1.2516 -0.01047,-2.5032 -0.01587,-3.79272c0.15219,-3.84399 0.15219,-3.84398 3.67602,-3.92993z" fill="#7d2ca8"/><path d="M146.33727,198.51988c4.29,0 8.58,0 13,0c0,1.98 0,3.96 0,6c-1,1 -1,1 -3.46875,1.13281c-1.50047,-0.00386 -1.50047,-0.00386 -3.03125,-0.00781c-1.00032,0.00258 -2.00063,0.00515 -3.03125,0.00781c-2.46875,-0.13281 -2.46875,-0.13281 -3.46875,-1.13281c0,-1.98 0,-3.96 0,-6z" fill="#f00000"/><path d="M405.33727,200.51988c0.99,0.495 0.99,0.495 2,1c0,4.62 0,9.24 0,14c4.62,0 9.24,0 14,0c0,-1.98 0,-3.96 0,-6c-2.97,-0.495 -2.97,-0.495 -6,-1c0.33,-0.99 0.66,-1.98 1,-3c2.31,0.66 4.62,1.32 7,2c0.22175,1.45636 0.42699,2.91523 0.625,4.375c0.17402,1.21816 0.17402,1.21816 0.35156,2.46093c0.00774,0.71414 0.01547,1.42829 0.02344,2.16407c-2,2 -2,2 -5.4414,2.01172c-1.37451,-0.09714 -2.74826,-0.20567 -4.1211,-0.32422c-0.69802,-0.04834 -1.39605,-0.09668 -2.11523,-0.14649c-5.17802,-0.39676 -5.17802,-0.39676 -6.32227,-1.54101c-0.23678,-2.69236 -0.42198,-5.36498 -0.5625,-8.0625c-0.04318,-0.75861 -0.08637,-1.51723 -0.13086,-2.29883c-0.10638,-1.87932 -0.20704,-3.75897 -0.30664,-5.63867z" fill="#ffffff"/><path d="M277.33727,194.51988c0.99,0 1.98,0 3,0c0.36902,9.41002 0.36902,9.41002 -2,14c-0.66,0 -1.32,0 -2,0c-0.02695,-1.95826 -0.04637,-3.91662 -0.0625,-5.875c-0.0116,-1.09054 -0.0232,-2.1811 -0.03515,-3.30469c0.09765,-2.82031 0.09765,-2.82031 1.09765,-4.82031zM277.33727,201.51988c1,3 1,3 1,3z" fill="#ffffff"/><path d="M372.33727,196.51988c0.33,0 0.66,0 1,0c0.33,6.27 0.66,12.54 1,19c5.57837,0.31623 5.57837,0.31623 9,-1c-0.66,1.32 -1.32,2.64 -2,4c-6.15235,0.09766 -6.15235,0.09766 -8,0c-1,-1 -1,-1 -1.11352,-3.04126c0.00524,-0.87455 0.01047,-1.74909 0.01587,-2.65014c0.00322,-0.94424 0.00644,-1.88848 0.00976,-2.86133c0.00838,-0.99322 0.01675,-1.98644 0.02539,-3.00976c0.00451,-0.99709 0.00902,-1.99418 0.01367,-3.02149c0.01183,-2.47206 0.02831,-4.94401 0.04883,-7.41601z" fill="#ffffff"/><path d="M400.33727,211.51988c0.33,0.66 0.66,1.32 1,2c-0.9375,2.625 -0.9375,2.625 -2,5c-7.75,1.125 -7.75,1.125 -10,0c0,-0.66 0,-1.32 0,-2c1.88718,0.15469 1.88718,0.15469 3.8125,0.3125c2.17892,0.08331 2.17892,0.08331 4.1875,-0.3125c2.08217,-2.355 2.08217,-2.355 3,-5z" fill="#ffffff"/><path d="M421.33727,197.51988c1.42945,2.35439 2.08661,3.48032 1.625,6.25c-0.20625,0.5775 -0.4125,1.155 -0.625,1.75c-2.31,0 -4.62,0 -7,0c-0.33,0.99 -0.66,1.98 -1,3c0,-1.65 0,-3.3 0,-5c2.31,0 4.62,0 7,0c0,-1.98 0,-3.96 0,-6z" fill="#ffffff"/><path d="M85.33727,184.51988c2.6459,-0.02685 5.29153,-0.04676 7.9375,-0.0625c0.75474,-0.00838 1.5095,-0.01676 2.28711,-0.02539c1.92534,-0.00863 3.85075,0.03565 5.77539,0.08789c1,1 1,1 1.0625,4.0625c-0.02062,0.96938 -0.04125,1.93875 -0.0625,2.9375c-0.46406,-0.95907 -0.46406,-0.95907 -0.9375,-1.9375c-0.89701,-1.99861 -0.89701,-1.99861 -2.0625,-3.0625c-2.34987,-0.23528 -4.70556,-0.41386 -7.0625,-0.5625c-1.29035,-0.08379 -2.5807,-0.16757 -3.91016,-0.25391c-1.49854,-0.09088 -1.49854,-0.09088 -3.02734,-0.18359c0,-0.33 0,-0.66 0,-1z" fill="#ffffff"/><path d="M371.33727,187.51988c0.33,0 0.66,0 1,0c0.33,2.97 0.66,5.94 1,9c-1.98,-0.66 -3.96,-1.32 -6,-2c1.32,-0.33 2.64,-0.66 4,-1c0,-1.98 0,-3.96 0,-6z" fill="#ffffff"/></g></g></svg>